<mxfile host="app.diagrams.net" agent="Mozilla/5.0 (Windows NT 10.0; Win64; x64) AppleWebKit/537.36 (KHTML, like Gecko) Chrome/130.0.0.0 Safari/537.36 Edg/130.0.0.0" version="24.8.3">
  <diagram name="Sivu-1" id="1NYT-KAuV_2OQOt8gWRy">
    <mxGraphModel dx="704" dy="739" grid="1" gridSize="10" guides="1" tooltips="1" connect="1" arrows="1" fold="1" page="1" pageScale="1" pageWidth="827" pageHeight="1169" math="0" shadow="0">
      <root>
        <mxCell id="0" />
        <mxCell id="1" parent="0" />
        <mxCell id="yE3FLWMd4unatY1CHsjF-4" value="" style="edgeStyle=orthogonalEdgeStyle;rounded=0;orthogonalLoop=1;jettySize=auto;html=1;" edge="1" parent="1" source="yE3FLWMd4unatY1CHsjF-1" target="yE3FLWMd4unatY1CHsjF-2">
          <mxGeometry relative="1" as="geometry" />
        </mxCell>
        <mxCell id="yE3FLWMd4unatY1CHsjF-1" value="Aloitus" style="ellipse;whiteSpace=wrap;html=1;" vertex="1" parent="1">
          <mxGeometry x="294" y="10" width="120" height="80" as="geometry" />
        </mxCell>
        <mxCell id="yE3FLWMd4unatY1CHsjF-5" value="" style="edgeStyle=orthogonalEdgeStyle;rounded=0;orthogonalLoop=1;jettySize=auto;html=1;" edge="1" parent="1" source="yE3FLWMd4unatY1CHsjF-2" target="yE3FLWMd4unatY1CHsjF-3">
          <mxGeometry relative="1" as="geometry" />
        </mxCell>
        <mxCell id="yE3FLWMd4unatY1CHsjF-2" value="var l1,l2,l3,l4,l5" style="rounded=0;whiteSpace=wrap;html=1;" vertex="1" parent="1">
          <mxGeometry x="294" y="150" width="120" height="60" as="geometry" />
        </mxCell>
        <mxCell id="yE3FLWMd4unatY1CHsjF-7" value="" style="edgeStyle=orthogonalEdgeStyle;rounded=0;orthogonalLoop=1;jettySize=auto;html=1;" edge="1" parent="1" source="yE3FLWMd4unatY1CHsjF-3" target="yE3FLWMd4unatY1CHsjF-6">
          <mxGeometry relative="1" as="geometry" />
        </mxCell>
        <mxCell id="yE3FLWMd4unatY1CHsjF-3" value="Anna luvut&lt;div&gt;taulukkoon&lt;br&gt;&lt;div&gt;l1,l2,l3,l4,l5&lt;/div&gt;&lt;/div&gt;" style="shape=parallelogram;perimeter=parallelogramPerimeter;whiteSpace=wrap;html=1;fixedSize=1;" vertex="1" parent="1">
          <mxGeometry x="294" y="250" width="120" height="60" as="geometry" />
        </mxCell>
        <mxCell id="yE3FLWMd4unatY1CHsjF-9" value="" style="edgeStyle=orthogonalEdgeStyle;rounded=0;orthogonalLoop=1;jettySize=auto;html=1;" edge="1" parent="1" source="yE3FLWMd4unatY1CHsjF-6" target="yE3FLWMd4unatY1CHsjF-8">
          <mxGeometry relative="1" as="geometry" />
        </mxCell>
        <mxCell id="yE3FLWMd4unatY1CHsjF-6" value="järjestä taulukko" style="rounded=0;whiteSpace=wrap;html=1;" vertex="1" parent="1">
          <mxGeometry x="294" y="350" width="120" height="60" as="geometry" />
        </mxCell>
        <mxCell id="yE3FLWMd4unatY1CHsjF-11" value="" style="edgeStyle=orthogonalEdgeStyle;rounded=0;orthogonalLoop=1;jettySize=auto;html=1;" edge="1" parent="1" source="yE3FLWMd4unatY1CHsjF-8" target="yE3FLWMd4unatY1CHsjF-10">
          <mxGeometry relative="1" as="geometry" />
        </mxCell>
        <mxCell id="yE3FLWMd4unatY1CHsjF-8" value="tulosta l5" style="rounded=0;whiteSpace=wrap;html=1;" vertex="1" parent="1">
          <mxGeometry x="294" y="460" width="120" height="60" as="geometry" />
        </mxCell>
        <mxCell id="yE3FLWMd4unatY1CHsjF-10" value="Lopetus" style="ellipse;whiteSpace=wrap;html=1;" vertex="1" parent="1">
          <mxGeometry x="294" y="560" width="120" height="80" as="geometry" />
        </mxCell>
      </root>
    </mxGraphModel>
  </diagram>
</mxfile>
